PathFileType	4	(X/Y/Z)	Kaydara	
DataRate	CameraRate	NumFrames	NumMarkers	Units	OrigDataRate	OrigDataStartFrame	OrigNumFrames	
60.00	60.00	4	74	mm	60.00	188	201	
Frame#	Time	N_lasi			N_rasi			N_rpsi			N_lpsi			N_fneck			N_bneck			N_fhead			N_rhead			N_lhead			N_rshld			N_relbtop			N_relbext			N_relblow			N_rwrext			N_rwrtop			N_rwrlow			N_lshld			N_lelbext			N_lelblow			N_lelbtop			N_lwrext			N_lwrtop			N_lwrlow			N_rtopleg			N_ltopleg			N_rkneefr			N_rkneebk			N_rkneeis			N_lkneefr			N_lknssbk			N_lkneeis			N_rankfr			N_rankis			N_rankbk			N_lankfr			N_lankbk			N_lankis			D_lasi			D_rasi			D_rpsi			D_lpsi			D_fneck			D_bneck			D_fhead			D_rhead			D_lhead			D_rshld			D_relbtop			D_relbext			D_relblow			D_rwrext			D_rwrtop			D_rwrlow			D_lshld			D_lelbext			D_lelblow			D_lelbtop			D_lwrext			D_lwrtop			D_lwrlow			D_rtopleg			D_ltopleg			D_rkneefr			D_rkneebk			D_rkneeis			D_lkneefr			D_lknssbk			D_lkneeis			D_rankfr			D_rankis			D_rankbk			D_lankfr			D_lankbk			D_lankis			
		X1	Y1	Z1	X2	Y2	Z2	X3	Y3	Z3	X4	Y4	Z4	X5	Y5	Z5	X6	Y6	Z6	X7	Y7	Z7	X8	Y8	Z8	X9	Y9	Z9	X10	Y10	Z10	X11	Y11	Z11	X12	Y12	Z12	X13	Y13	Z13	X14	Y14	Z14	X15	Y15	Z15	X16	Y16	Z16	X17	Y17	Z17	X18	Y18	Z18	X19	Y19	Z19	X20	Y20	Z20	X21	Y21	Z21	X22	Y22	Z22	X23	Y23	Z23	X24	Y24	Z24	X25	Y25	Z25	X26	Y26	Z26	X27	Y27	Z27	X28	Y28	Z28	X29	Y29	Z29	X30	Y30	Z30	X31	Y31	Z31	X32	Y32	Z32	X33	Y33	Z33	X34	Y34	Z34	X35	Y35	Z35	X36	Y36	Z36	X37	Y37	Z37	X38	Y38	Z38	X39	Y39	Z39	X40	Y40	Z40	X41	Y41	Z41	X42	Y42	Z42	X43	Y43	Z43	X44	Y44	Z44	X45	Y45	Z45	X46	Y46	Z46	X47	Y47	Z47	X48	Y48	Z48	X49	Y49	Z49	X50	Y50	Z50	X51	Y51	Z51	X52	Y52	Z52	X53	Y53	Z53	X54	Y54	Z54	X55	Y55	Z55	X56	Y56	Z56	X57	Y57	Z57	X58	Y58	Z58	X59	Y59	Z59	X60	Y60	Z60	X61	Y61	Z61	X62	Y62	Z62	X63	Y63	Z63	X64	Y64	Z64	X65	Y65	Z65	X66	Y66	Z66	X67	Y67	Z67	X68	Y68	Z68	X69	Y69	Z69	X70	Y70	Z70	X71	Y71	Z71	X72	Y72	Z72	X73	Y73	Z73	X74	Y74	Z74	

1	3.117	-669.66309	1113.77548	-424.68338	-684.87793	1120.19714	-677.12112	-422.06360	1202.73209	-736.03371	-390.14431	1206.95290	-388.82668	-601.76735	1560.24353	-672.09282	-553.68446	1659.08539	-573.25554	-777.64351	1690.41519	-449.20280	-645.63644	1758.60382	-588.66131	-613.45051	1736.71387	-435.95188	-608.48541	1503.57529	-807.66197	-536.34228	1208.90282	-927.90466	-642.82928	1163.55270	-933.16971	-605.08026	1198.69286	-872.46468	-560.40718	894.61624	-897.37656	-589.71497	895.02815	-858.92548	-565.10601	902.89108	-819.31122	-454.90952	1522.51846	-332.19116	-400.25166	1168.35732	-346.45496	-424.80438	1201.66306	-254.31225	-343.00892	1209.84169	-284.59509	-390.93285	904.65622	-260.15188	-434.55345	899.51385	-239.92060	-458.44589	904.67720	-286.76533	-553.03326	976.50513	-784.24881	-438.99929	1048.10242	-323.04214	-522.73876	520.09167	-665.71762	-386.79462	549.52148	-698.61313	-443.72887	527.94563	-560.08293	-684.36768	556.50429	-345.35450	-552.90783	583.61023	-315.55454	-575.72857	546.74610	-447.63897	-386.31481	139.78865	-700.76920	-388.27457	144.59162	-618.95935	-305.89954	135.43747	-645.13832	-566.28105	210.33781	-320.09560	-484.73591	224.34477	-308.55021	-529.36157	213.85717	-387.80212	-215.00454	1029.46213	1256.07224	73.39793	1059.71779	1249.22302	25.09993	1158.77579	1454.99313	-191.76310	1139.46571	1442.77512	-67.92701	1533.48206	1195.89859	-72.57067	1610.79132	1312.32803	-30.00477	1700.07111	1079.43092	19.20538	1722.76978	1254.18777	-130.71791	1742.26364	1220.01236	136.27803	1484.81125	1263.23891	193.60792	1166.73264	1390.52826	132.53265	1154.77905	1344.37988	227.30947	1183.85765	1310.73334	250.36966	928.80264	1309.95209	257.85095	938.78967	1250.82603	203.22060	943.64700	1247.14600	-292.42132	1502.38037	1325.57770	-292.71648	1163.17123	1325.54413	-384.88438	1206.32118	1315.13214	-351.93050	1167.53014	1379.79218	-411.57722	952.75650	1258.88733	-411.03413	970.65117	1218.14316	-361.60000	973.60641	1206.00967	139.46978	1017.57813	1330.85724	-255.86542	1007.16545	1401.64139	138.60926	511.90147	1148.50159	183.86440	518.50594	1249.48364	65.87838	479.95041	1255.41275	-198.55070	458.20980	1358.43002	-210.41458	489.54266	1470.02045	-105.57153	450.57503	1396.42654	219.32066	167.52508	1198.56613	157.59909	154.79322	1227.38541	224.58450	162.41859	1278.83118	-203.07905	131.73436	1444.37119	-201.36894	130.81198	1519.53644	-136.62277	127.90540	1460.57465 
2	3.133	-672.99164	1114.29062	-421.59821	-691.30203	1119.84909	-673.71941	-429.19632	1202.39090	-734.97398	-393.53069	1207.01576	-388.33725	-608.01620	1559.91623	-669.68689	-559.93332	1658.75809	-570.84957	-783.15666	1689.14261	-444.90723	-652.20093	1758.02032	-585.15408	-619.01482	1735.83679	-432.72476	-617.51141	1503.39493	-804.66164	-550.75359	1208.02147	-926.29860	-656.88751	1163.13110	-930.97878	-618.78540	1198.73108	-869.68895	-579.02977	894.18007	-894.36546	-607.77782	895.16663	-855.54054	-582.53597	902.81921	-816.21269	-458.36414	1522.20261	-331.06140	-404.50958	1168.75519	-345.97267	-428.98163	1201.67068	-252.56086	-347.77119	1209.24065	-284.27114	-396.76746	904.68597	-255.42578	-440.29026	899.83757	-235.52719	-463.69377	904.33846	-282.78151	-559.12609	975.79185	-781.31943	-444.40472	1046.42632	-320.15995	-523.39577	519.80061	-664.01115	-387.98668	549.76646	-697.21474	-444.33056	527.72465	-558.50006	-691.30646	558.29632	-346.46996	-558.84289	581.91422	-318.11640	-583.48240	548.57243	-449.58408	-386.58581	139.95856	-700.28893	-388.31142	144.56763	-618.52688	-306.07878	135.65680	-644.79500	-583.20335	208.97137	-328.47851	-501.19755	220.27639	-317.84817	-547.18769	212.37442	-396.60213	-204.32627	1028.40332	1247.59254	84.52629	1058.57018	1251.47964	29.54284	1158.32855	1456.10931	-187.25393	1138.70445	1435.48370	-54.01394	1532.31689	1193.49564	-60.81500	1610.02960	1308.85376	-14.12130	1698.62732	1076.42174	32.85467	1722.00333	1251.97792	-116.53444	1741.26190	1215.59845	148.34935	1482.88300	1265.55084	201.02364	1164.17183	1393.37601	140.85440	1152.87376	1345.59616	236.45988	1181.36414	1314.52240	257.83756	926.47903	1312.27646	266.52388	936.59409	1253.59047	212.18811	941.89445	1248.86894	-281.67637	1502.52472	1316.49414	-283.03396	1163.38432	1318.77411	-374.62696	1206.63689	1305.49484	-344.26903	1168.26660	1371.36505	-400.10544	952.98279	1249.14452	-397.35107	970.61798	1208.52074	-347.35107	973.38860	1198.63228	147.37527	1017.00737	1335.94254	-250.04122	1006.12823	1392.00378	156.93612	512.07222	1156.85646	197.51720	518.06526	1259.34067	79.85518	478.21507	1259.51477	-192.98969	457.26940	1356.69006	-207.03194	489.66629	1467.71133	-100.16206	449.89086	1397.65076	241.00578	168.60300	1204.08905	178.05111	154.25728	1229.57520	241.97104	161.88829	1284.20868	-201.12167	131.71122	1443.47534	-200.66198	131.18315	1518.54797	-135.15581	127.47445	1460.73669 
3	3.150	-676.66138	1114.19769	-418.45398	-698.11714	1119.23462	-670.20607	-436.59172	1201.92947	-733.31589	-397.78168	1206.74255	-387.34253	-614.45583	1559.37820	-666.70776	-566.37295	1658.22006	-567.87041	-788.74977	1687.89658	-440.40089	-658.85246	1757.28256	-581.34926	-625.04936	1734.77386	-429.28410	-626.83720	1502.98111	-801.29601	-565.68859	1206.83533	-923.86719	-671.39938	1162.45071	-928.02765	-632.87422	1198.55621	-866.21819	-598.46138	893.64632	-890.50163	-626.78249	895.15770	-851.31073	-600.87379	902.45773	-812.10846	-462.10468	1521.57562	-329.60770	-409.04793	1168.77434	-345.79086	-433.12027	1201.38939	-251.22845	-353.13293	1208.17139	-284.12922	-402.49084	904.36577	-251.46410	-445.78014	899.59976	-230.99598	-469.96532	903.92349	-277.89036	-565.63560	974.93462	-777.81670	-449.81022	1044.75014	-317.27781	-524.45820	519.24023	-662.35657	-389.56993	550.04177	-695.66208	-445.71083	527.21474	-556.93748	-697.76077	559.68674	-347.53105	-564.52751	579.96513	-320.33215	-590.69393	549.86870	-451.37218	-386.91204	139.99470	-699.67438	-388.69358	144.50389	-617.97646	-306.44257	135.89912	-644.29779	-600.97210	207.64240	-335.68874	-518.55434	216.13214	-326.19205	-565.86235	210.62599	-404.40411	-192.62499	1027.22984	1239.28726	96.25027	1057.28973	1253.20702	34.63987	1157.78587	1456.94717	-182.46717	1137.94128	1427.32285	-39.45457	1531.09161	1189.99252	-48.73519	1609.08401	1305.21347	2.25911	1697.05307	1073.36830	46.81763	1720.95734	1249.38293	-102.14848	1740.22095	1211.02013	160.73378	1480.90195	1267.78519	208.72993	1161.36803	1396.42578	149.34603	1150.76416	1347.30774	245.85155	1178.87154	1318.25485	264.40889	923.53539	1312.03094	275.72426	934.57680	1255.81024	221.50381	940.27527	1250.13214	-270.27262	1502.42813	1306.84143	-273.04716	1163.48763	1312.38174	-363.74439	1206.57036	1295.17365	-335.92022	1168.75748	1362.49542	-387.61909	952.96127	1239.42245	-382.97325	970.05798	1198.79929	-332.54135	972.72545	1191.31813	155.67107	1016.17470	1340.76324	-243.59211	1005.25414	1382.05597	174.86128	512.19471	1165.16457	210.32713	517.19303	1269.21036	92.78065	476.78089	1263.04634	-186.61791	456.43536	1354.06967	-203.34364	489.73774	1464.66843	-95.01678	448.86932	1397.13638	260.28681	169.10749	1209.39789	195.99985	153.50955	1231.17043	256.77204	160.42606	1289.49844	-199.12580	131.90009	1442.38785	-199.64504	131.51806	1517.74338	-133.35866	126.96977	1460.66589 
4	3.167	-680.71686	1113.46268	-415.13371	-705.15068	1118.35495	-666.51779	-444.11049	1201.30455	-731.43822	-401.79623	1205.65346	-385.77099	-621.12823	1558.60413	-663.45566	-573.04535	1657.44598	-564.61842	-794.49142	1686.71967	-435.51231	-665.66582	1756.38519	-577.22321	-628.97224	1734.52057	-424.93439	-636.40034	1502.40509	-797.40120	-580.98461	1205.38940	-920.78964	-686.34384	1161.58646	-924.33571	-647.46704	1198.27393	-861.91170	-618.64635	892.89413	-885.60371	-646.45645	895.14557	-846.09711	-619.69139	902.13249	-806.65169	-466.20377	1520.61844	-327.63992	-415.01816	1168.64113	-344.68681	-439.61967	1201.17210	-247.91386	-358.99769	1206.73317	-284.12500	-408.34667	903.64151	-247.94682	-451.05949	898.87085	-226.62922	-476.18492	902.86453	-273.02103	-571.69994	973.64342	-774.89334	-455.21564	1043.07396	-314.39564	-526.34407	518.07098	-660.57922	-391.46221	550.26268	-694.08920	-446.76163	527.14622	-554.87469	-703.69156	560.74848	-348.38623	-569.95689	578.01807	-322.31102	-597.85789	550.69176	-453.48667	-387.27921	140.13286	-699.15932	-389.12704	144.38089	-617.57866	-306.79810	136.12666	-643.84308	-618.95496	206.33617	-341.78352	-536.58752	211.69731	-334.20132	-585.28057	208.91171	-411.06064	-179.91978	1025.75974	1230.88364	108.40059	1055.81764	1255.09727	39.88329	1157.35214	1453.82568	-176.75407	1136.94336	1418.52142	-24.54227	1529.69742	1186.42189	-36.33560	1607.89825	1301.31287	18.69391	1695.24216	1070.07736	60.91529	1719.65118	1246.49879	-87.27430	1738.88702	1206.44676	173.22460	1478.91144	1270.11864	216.44869	1158.69362	1399.04221	158.19438	1148.82851	1348.95050	255.31349	1176.49086	1321.99799	272.74958	921.12038	1313.85239	285.34082	932.65167	1258.18909	231.36896	938.75465	1251.12259	-258.46949	1501.86630	1296.60690	-262.90167	1163.26218	1303.38196	-352.33700	1206.24069	1284.40445	-327.16942	1169.20128	1352.98477	-374.90044	952.31987	1229.49112	-368.06519	968.98026	1188.94287	-317.23698	971.44066	1183.97461	164.01123	1015.10437	1345.53192	-236.63652	1003.97369	1371.75262	192.38384	512.03148	1173.47008	222.13886	515.64587	1279.13620	105.34316	475.08404	1266.20506	-180.19331	455.38033	1351.08017	-199.31622	489.75327	1461.12900	-89.62778	447.88811	1396.30890	276.95719	168.79383	1214.54514	211.65678	152.65576	1232.54135	269.33630	158.22904	1294.53003	-197.17243	132.19424	1441.06949	-198.56066	131.98812	1516.32889	-131.41217	126.66674	1460.38269 
